<svg width="64" height="64" viewBox="0 0 64 64" fill="none" xmlns="http://www.w3.org/2000/svg">
<circle cx="32" cy="32" r="32" fill="#FDEFE8"/>
<path d="M28.4524 40C28.1289 42.2615 26.184 44 23.833 44C21.482 44 19.5371 42.2615 19.2136 40H17.833V24C17.833 23.2636 18.43 22.6667 19.1663 22.6667H37.833C38.5694 22.6667 39.1663 23.2636 39.1663 24V26.6667H43.1663L47.1663 32.0743V40H44.4525C44.1289 42.2615 42.1839 44 39.833 44C37.4821 44 35.5371 42.2615 35.2135 40H28.4524ZM36.4997 25.3334H20.4997V36.0674C21.3467 35.203 22.5272 34.6667 23.833 34.6667C25.6946 34.6667 27.3016 35.7567 28.0506 37.3334H35.6154C35.839 36.8627 36.1391 36.4352 36.4997 36.0674V25.3334ZM39.1663 33.3334H44.4997V32.9534L41.8219 29.3334H39.1663V33.3334ZM39.833 41.3334C40.7038 41.3334 41.4446 40.7768 41.7191 40C41.7929 39.7915 41.833 39.5671 41.833 39.3334C41.833 38.2288 40.9375 37.3334 39.833 37.3334C38.7285 37.3334 37.833 38.2288 37.833 39.3334C37.833 39.5671 37.8731 39.7915 37.9469 40C38.2214 40.7768 38.9622 41.3334 39.833 41.3334ZM25.833 39.3334C25.833 38.2288 24.9376 37.3334 23.833 37.3334C22.7284 37.3334 21.833 38.2288 21.833 39.3334C21.833 39.5671 21.8731 39.7915 21.9468 40C22.2214 40.7768 22.9622 41.3334 23.833 41.3334C24.7038 41.3334 25.4446 40.7768 25.7192 40C25.7929 39.7915 25.833 39.5671 25.833 39.3334Z" fill="#E95B1B"/>
</svg>
