<svg width="65" height="64" viewBox="0 0 65 64" fill="none" xmlns="http://www.w3.org/2000/svg">
<circle cx="32.5" cy="32" r="32" fill="#FDEFE8"/>
<path d="M19.667 45.3333C19.667 39.4422 24.4426 34.6666 30.3337 34.6666C36.2247 34.6666 41.0003 39.4422 41.0003 45.3333H38.3337C38.3337 40.915 34.7519 37.3333 30.3337 37.3333C25.9154 37.3333 22.3337 40.915 22.3337 45.3333H19.667ZM30.3337 33.3333C25.9137 33.3333 22.3337 29.7533 22.3337 25.3333C22.3337 20.9133 25.9137 17.3333 30.3337 17.3333C34.7537 17.3333 38.3337 20.9133 38.3337 25.3333C38.3337 29.7533 34.7537 33.3333 30.3337 33.3333ZM30.3337 30.6666C33.2803 30.6666 35.667 28.28 35.667 25.3333C35.667 22.3866 33.2803 20 30.3337 20C27.387 20 25.0003 22.3866 25.0003 25.3333C25.0003 28.28 27.387 30.6666 30.3337 30.6666ZM41.3786 35.6037C45.0862 37.2748 47.667 41.0026 47.667 45.3333H45.0003C45.0003 42.0853 43.0647 39.2894 40.2841 38.0361L41.3786 35.6037ZM40.4619 20.5509C43.1262 21.6494 45.0003 24.2715 45.0003 27.3333C45.0003 31.1602 42.0726 34.3002 38.3337 34.6368V31.9528C40.5959 31.6296 42.3337 29.6853 42.3337 27.3333C42.3337 25.4924 41.2691 23.9014 39.7217 23.1418L40.4619 20.5509Z" fill="#E95B1B"/>
</svg>
